<svg xmlns="http://www.w3.org/2000/svg" width="1012" height="600"><rect width="1012" height="600" x="0" y="0" fill="#FFFFFF" id="backgorund"/><g id="viz"><g transform="translate(0,0)"><g transform="translate(10,20)"><g><path fill="#d62728" d="M0,11.000000000000012C19.8,11.000000000000012,19.8,9.440000000000012,39.6,9.440000000000012C59.400000000000006,9.440000000000012,59.400000000000006,8.880000000000011,79.2,8.880000000000011C99,8.880000000000011,99,6.080000000000009,118.8,6.080000000000009C138.6,6.080000000000009,138.6,5.5200000000000085,158.4,5.5200000000000085C178.2,5.5200000000000085,178.2,5.5200000000000085,198,5.5200000000000085C217.8,5.5200000000000085,217.8,6.080000000000009,237.6,6.080000000000009C257.4,6.080000000000009,257.4,5.5200000000000085,277.2,5.5200000000000085C297,5.5200000000000085,297,7.7600000000000104,316.8,7.7600000000000104C336.6,7.7600000000000104,336.6,7.7600000000000104,356.40000000000003,7.7600000000000104C376.20000000000005,7.7600000000000104,376.20000000000005,7.20000000000001,396,7.20000000000001C415.8,7.20000000000001,415.8,7.7600000000000104,435.6,7.7600000000000104C455.4,7.7600000000000104,455.4,7.7600000000000104,475.2,7.7600000000000104C495,7.7600000000000104,495,7.7600000000000104,514.8000000000001,7.7600000000000104C534.6,7.7600000000000104,534.6,6.6400000000000095,554.4,6.6400000000000095C574.2,6.6400000000000095,574.2,5.519999999999946,594,5.519999999999946C613.8,5.519999999999946,613.8,3.839999999999945,633.6,3.839999999999945C653.4,3.839999999999945,653.4,4.96000000000007,673.1999999999999,4.96000000000007C693,4.96000000000007,693,4.959999999999946,712.8000000000001,4.959999999999946C732.6,4.959999999999946,732.6,4.4000000000000075,752.4,4.4000000000000075C772.2,4.4000000000000075,772.2,4.40000000000007,792,4.40000000000007L792,279.36000000000007C772.2,279.36000000000007,772.2,290.56,752.4,290.56C732.6,290.56,732.6,287.75999999999993,712.8000000000001,287.75999999999993C693,287.75999999999993,693,298.9600000000001,673.1999999999999,298.9600000000001C653.4,298.9600000000001,653.4,311.28,633.6,311.28C613.8,311.28,613.8,316.88,594,316.88C574.2,316.88,574.2,324.15999999999997,554.4,324.15999999999997C534.6,324.15999999999997,534.6,330.88,514.8000000000001,330.88C495,330.88,495,330.88,475.2,330.88C455.4,330.88,455.4,331.44,435.6,331.44C415.8,331.44,415.8,329.76,396,329.76C376.20000000000005,329.76,376.20000000000005,331.44,356.40000000000003,331.44C336.6,331.44,336.6,336.48,316.8,336.48C297,336.48,297,339.84,277.2,339.84C257.4,339.84,257.4,346,237.6,346C217.8,346,217.8,344.88,198,344.88C178.2,344.88,178.2,347.68,158.4,347.68C138.6,347.68,138.6,352.72,118.8,352.72C99,352.72,99,359.44,79.2,359.44C59.400000000000006,359.44,59.400000000000006,366.72,39.6,366.72C19.8,366.72,19.8,371.64000000000004,0,371.64000000000004Z"><title>fb</title></path><path fill="#9467bd" d="M0,372.64000000000004C19.8,372.64000000000004,19.8,435.92,39.6,435.92C59.400000000000006,435.92,59.400000000000006,360.44,79.2,360.44C99,360.44,99,353.72,118.8,353.72C138.6,353.72,138.6,348.68,158.4,348.68C178.2,348.68,178.2,345.88,198,345.88C217.8,345.88,217.8,347,237.6,347C257.4,347,257.4,340.84,277.2,340.84C297,340.84,297,337.48,316.8,337.48C336.6,337.48,336.6,332.44,356.40000000000003,332.44C376.20000000000005,332.44,376.20000000000005,330.76,396,330.76C415.8,330.76,415.8,332.44,435.6,332.44C455.4,332.44,455.4,331.88,475.2,331.88C495,331.88,495,331.88,514.8000000000001,331.88C534.6,331.88,534.6,325.15999999999997,554.4,325.15999999999997C574.2,325.15999999999997,574.2,317.88,594,317.88C613.8,317.88,613.8,312.28,633.6,312.28C653.4,312.28,653.4,299.9600000000001,673.1999999999999,299.9600000000001C693,299.9600000000001,693,288.75999999999993,712.8000000000001,288.75999999999993C732.6,288.75999999999993,732.6,291.56,752.4,291.56C772.2,291.56,772.2,280.36000000000007,792,280.36000000000007L792,402.44000000000005C772.2,402.44000000000005,772.2,404.12,752.4,404.12C732.6,404.12,732.6,394.03999999999996,712.8000000000001,394.03999999999996C693,394.03999999999996,693,402.44000000000005,673.1999999999999,402.44000000000005C653.4,402.44000000000005,653.4,406.92,633.6,406.92C613.8,406.92,613.8,409.15999999999997,594,409.15999999999997C574.2,409.15999999999997,574.2,410.28,554.4,410.28C534.6,410.28,534.6,414.2,514.8000000000001,414.2C495,414.2,495,408.59999999999997,475.2,408.59999999999997C455.4,408.59999999999997,455.4,413.64,435.6,413.64C415.8,413.64,415.8,411.4,396,411.4C376.20000000000005,411.4,376.20000000000005,414.2,356.40000000000003,414.2C336.6,414.2,336.6,420.36,316.8,420.36C297,420.36,297,424.28000000000003,277.2,424.28000000000003C257.4,424.28000000000003,257.4,432.68,237.6,432.68C217.8,432.68,217.8,429.32,198,429.32C178.2,429.32,178.2,433.24,158.4,433.24C138.6,433.24,138.6,436.6,118.8,436.6C99,436.6,99,436.6,79.2,436.6C59.400000000000006,436.6,59.400000000000006,502,39.6,502C19.8,502,19.8,440.40000000000003,0,440.40000000000003Z"><title>sl</title></path><path fill="#2ca02c" d="M0,560C19.8,560,19.8,560,39.6,560C59.400000000000006,560,59.400000000000006,554.4,79.2,554.4C99,554.4,99,547.68,118.8,547.68C138.6,547.68,138.6,544.88,158.4,544.88C178.2,544.88,178.2,543.76,198,543.76C217.8,543.76,217.8,539.84,237.6,539.84C257.4,539.84,257.4,534.24,277.2,534.24C297,534.24,297,533.68,316.8,533.68C336.6,533.68,336.6,528.0799999999999,356.40000000000003,528.0799999999999C376.20000000000005,528.0799999999999,376.20000000000005,527.52,396,527.52C415.8,527.52,415.8,528.0799999999999,435.6,528.0799999999999C455.4,528.0799999999999,455.4,525.28,475.2,525.28C495,525.28,495,528.64,514.8000000000001,528.64C534.6,528.64,534.6,528.0799999999999,554.4,528.0799999999999C574.2,528.0799999999999,574.2,529.1999999999999,594,529.1999999999999C613.8,529.1999999999999,613.8,528.64,633.6,528.64C653.4,528.64,653.4,526.96,673.1999999999999,526.96C693,526.96,693,523.04,712.8000000000001,523.04C732.6,523.04,732.6,525.28,752.4,525.28C772.2,525.28,772.2,523.0400000000001,792,523.0400000000001L792,560C772.2,560,772.2,560,752.4,560C732.6,560,732.6,560,712.8000000000001,560C693,560,693,560,673.1999999999999,560C653.4,560,653.4,560,633.6,560C613.8,560,613.8,560,594,560C574.2,560,574.2,560,554.4,560C534.6,560,534.6,560,514.8000000000001,560C495,560,495,560,475.2,560C455.4,560,455.4,560,435.6,560C415.8,560,415.8,560,396,560C376.20000000000005,560,376.20000000000005,560,356.40000000000003,560C336.6,560,336.6,560,316.8,560C297,560,297,560,277.2,560C257.4,560,257.4,560,237.6,560C217.8,560,217.8,560,198,560C178.2,560,178.2,560,158.4,560C138.6,560,138.6,560,118.8,560C99,560,99,560,79.2,560C59.400000000000006,560,59.400000000000006,560,39.6,560C19.8,560,19.8,560,0,560Z"><title>ct</title></path><path fill="#1f77b4" d="M0,441.40000000000003C19.8,441.40000000000003,19.8,503,39.6,503C59.400000000000006,503,59.400000000000006,502.44,79.2,502.44C99,502.44,99,499.64,118.8,499.64C138.6,499.64,138.6,494.6,158.4,494.6C178.2,494.6,178.2,494.6,198,494.6C217.8,494.6,217.8,490.12,237.6,490.12C257.4,490.12,257.4,482.28,277.2,482.28C297,482.28,297,482.28,316.8,482.28C336.6,482.28,336.6,474.44,356.40000000000003,474.44C376.20000000000005,474.44,376.20000000000005,412.4,396,412.4C415.8,412.4,415.8,472.76,435.6,472.76C455.4,472.76,455.4,468.84,475.2,468.84C495,468.84,495,476.68,514.8000000000001,476.68C534.6,476.68,534.6,469.96,554.4,469.96C574.2,469.96,574.2,410.15999999999997,594,410.15999999999997C613.8,410.15999999999997,613.8,468.84,633.6,468.84C653.4,468.84,653.4,466.6,673.1999999999999,466.6C693,466.6,693,462.67999999999995,712.8000000000001,462.67999999999995C732.6,462.67999999999995,732.6,469.96,752.4,469.96C772.2,469.96,772.2,467.72,792,467.72L792,522.0400000000001C772.2,522.0400000000001,772.2,524.28,752.4,524.28C732.6,524.28,732.6,522.04,712.8000000000001,522.04C693,522.04,693,525.96,673.1999999999999,525.96C653.4,525.96,653.4,527.64,633.6,527.64C613.8,527.64,613.8,469.52,594,469.52C574.2,469.52,574.2,527.0799999999999,554.4,527.0799999999999C534.6,527.0799999999999,534.6,527.64,514.8000000000001,527.64C495,527.64,495,524.28,475.2,524.28C455.4,524.28,455.4,527.0799999999999,435.6,527.0799999999999C415.8,527.0799999999999,415.8,470.64,396,470.64C376.20000000000005,470.64,376.20000000000005,527.0799999999999,356.40000000000003,527.0799999999999C336.6,527.0799999999999,336.6,532.68,316.8,532.68C297,532.68,297,533.24,277.2,533.24C257.4,533.24,257.4,538.84,237.6,538.84C217.8,538.84,217.8,542.76,198,542.76C178.2,542.76,178.2,543.88,158.4,543.88C138.6,543.88,138.6,546.68,118.8,546.68C99,546.68,99,553.4,79.2,553.4C59.400000000000006,553.4,59.400000000000006,559,39.6,559C19.8,559,19.8,504.12,0,504.12Z"><title>cb</title></path><path fill="#ff7f0e" d="M0,505.12C19.8,505.12,19.8,367.72,39.6,367.72C59.400000000000006,367.72,59.400000000000006,437.6,79.2,437.6C99,437.6,99,437.6,118.8,437.6C138.6,437.6,138.6,434.24,158.4,434.24C178.2,434.24,178.2,430.32,198,430.32C217.8,430.32,217.8,433.68,237.6,433.68C257.4,433.68,257.4,425.28000000000003,277.2,425.28000000000003C297,425.28000000000003,297,421.36,316.8,421.36C336.6,421.36,336.6,415.2,356.40000000000003,415.2C376.20000000000005,415.2,376.20000000000005,471.64,396,471.64C415.8,471.64,415.8,414.64,435.6,414.64C455.4,414.64,455.4,409.59999999999997,475.2,409.59999999999997C495,409.59999999999997,495,415.2,514.8000000000001,415.2C534.6,415.2,534.6,411.28,554.4,411.28C574.2,411.28,574.2,470.52,594,470.52C613.8,470.52,613.8,407.92,633.6,407.92C653.4,407.92,653.4,403.44000000000005,673.1999999999999,403.44000000000005C693,403.44000000000005,693,395.03999999999996,712.8000000000001,395.03999999999996C732.6,395.03999999999996,732.6,405.12,752.4,405.12C772.2,405.12,772.2,403.44000000000005,792,403.44000000000005L792,466.72C772.2,466.72,772.2,468.96,752.4,468.96C732.6,468.96,732.6,461.67999999999995,712.8000000000001,461.67999999999995C693,461.67999999999995,693,465.6,673.1999999999999,465.6C653.4,465.6,653.4,467.84,633.6,467.84C613.8,467.84,613.8,528.1999999999999,594,528.1999999999999C574.2,528.1999999999999,574.2,468.96,554.4,468.96C534.6,468.96,534.6,475.68,514.8000000000001,475.68C495,475.68,495,467.84,475.2,467.84C455.4,467.84,455.4,471.76,435.6,471.76C415.8,471.76,415.8,526.52,396,526.52C376.20000000000005,526.52,376.20000000000005,473.44,356.40000000000003,473.44C336.6,473.44,336.6,481.28,316.8,481.28C297,481.28,297,481.28,277.2,481.28C257.4,481.28,257.4,489.12,237.6,489.12C217.8,489.12,217.8,493.6,198,493.6C178.2,493.6,178.2,493.6,158.4,493.6C138.6,493.6,138.6,498.64,118.8,498.64C99,498.64,99,501.44,79.2,501.44C59.400000000000006,501.44,59.400000000000006,434.92,39.6,434.92C19.8,434.92,19.8,560,0,560Z"><title>ch</title></path></g><g id="xAxis" transform="translate(0,560)" fill="none" font-size="10" font-family="sans-serif" text-anchor="middle"><path class="domain" stroke="currentColor" d="M0,0H792"/><g class="tick" opacity="1" transform="translate(0,0)"><line stroke="currentColor" y2="6"/><text fill="currentColor" y="9" dy="0.71em">2,002</text></g><g class="tick" opacity="1" transform="translate(79.2,0)"><line stroke="currentColor" y2="6"/><text fill="currentColor" y="9" dy="0.71em">2,004</text></g><g class="tick" opacity="1" transform="translate(158.4,0)"><line stroke="currentColor" y2="6"/><text fill="currentColor" y="9" dy="0.71em">2,006</text></g><g class="tick" opacity="1" transform="translate(237.6,0)"><line stroke="currentColor" y2="6"/><text fill="currentColor" y="9" dy="0.71em">2,008</text></g><g class="tick" opacity="1" transform="translate(316.8,0)"><line stroke="currentColor" y2="6"/><text fill="currentColor" y="9" dy="0.71em">2,010</text></g><g class="tick" opacity="1" transform="translate(396,0)"><line stroke="currentColor" y2="6"/><text fill="currentColor" y="9" dy="0.71em">2,012</text></g><g class="tick" opacity="1" transform="translate(475.2,0)"><line stroke="currentColor" y2="6"/><text fill="currentColor" y="9" dy="0.71em">2,014</text></g><g class="tick" opacity="1" transform="translate(554.4,0)"><line stroke="currentColor" y2="6"/><text fill="currentColor" y="9" dy="0.71em">2,016</text></g><g class="tick" opacity="1" transform="translate(633.6,0)"><line stroke="currentColor" y2="6"/><text fill="currentColor" y="9" dy="0.71em">2,018</text></g><g class="tick" opacity="1" transform="translate(712.8000000000001,0)"><line stroke="currentColor" y2="6"/><text fill="currentColor" y="9" dy="0.71em">2,020</text></g><g class="tick" opacity="1" transform="translate(792,0)"><line stroke="currentColor" y2="6"/><text fill="currentColor" y="9" dy="0.71em">2,022</text></g></g><g id="yAxis" fill="none" font-size="10" font-family="sans-serif" text-anchor="end"><path class="domain" stroke="currentColor" d="M0,560V0"/><g class="tick" opacity="1" transform="translate(0,560)"><line stroke="currentColor" x2="-6"/><text fill="currentColor" x="-9" dy="0.32em">0.0</text></g><g class="tick" opacity="1" transform="translate(0,504)"><line stroke="currentColor" x2="-6"/><text fill="currentColor" x="-9" dy="0.32em">0.1</text></g><g class="tick" opacity="1" transform="translate(0,448)"><line stroke="currentColor" x2="-6"/><text fill="currentColor" x="-9" dy="0.32em">0.2</text></g><g class="tick" opacity="1" transform="translate(0,392)"><line stroke="currentColor" x2="-6"/><text fill="currentColor" x="-9" dy="0.32em">0.3</text></g><g class="tick" opacity="1" transform="translate(0,336)"><line stroke="currentColor" x2="-6"/><text fill="currentColor" x="-9" dy="0.32em">0.4</text></g><g class="tick" opacity="1" transform="translate(0,280)"><line stroke="currentColor" x2="-6"/><text fill="currentColor" x="-9" dy="0.32em">0.5</text></g><g class="tick" opacity="1" transform="translate(0,224)"><line stroke="currentColor" x2="-6"/><text fill="currentColor" x="-9" dy="0.32em">0.6</text></g><g class="tick" opacity="1" transform="translate(0,168.00000000000003)"><line stroke="currentColor" x2="-6"/><text fill="currentColor" x="-9" dy="0.32em">0.7</text></g><g class="tick" opacity="1" transform="translate(0,111.99999999999997)"><line stroke="currentColor" x2="-6"/><text fill="currentColor" x="-9" dy="0.32em">0.8</text></g><g class="tick" opacity="1" transform="translate(0,55.999999999999986)"><line stroke="currentColor" x2="-6"/><text fill="currentColor" x="-9" dy="0.32em">0.9</text></g><g class="tick" opacity="1" transform="translate(0,0)"><line stroke="currentColor" x2="-6"/><text fill="currentColor" x="-9" dy="0.32em">1.0</text></g></g><text y="556" x="792" text-anchor="end" style="font-family: Arial, sans-serif; font-size: 12px; fill: rgb(123, 123, 123); font-weight: bold;">season</text><text x="4" text-anchor="start" dominant-baseline="hanging" style="font-family: Arial, sans-serif; font-size: 12px; fill: rgb(123, 123, 123); font-weight: bold;">value</text><g id="labels"><text dy="0.5ex" class="label"><textPath xmlns:xlink="http://www.w3.org/1999/xlink" xlink:href="#path-0-0" startOffset="5%" alignment-baseline="middle" text-anchor="start" style="font-family: Arial, sans-serif; font-size: 10px; fill: black; font-weight: bold;">fb</textPath></text><text dy="0.5ex" class="label"><textPath xmlns:xlink="http://www.w3.org/1999/xlink" xlink:href="#path-0-1" startOffset="95%" alignment-baseline="middle" text-anchor="end" style="font-family: Arial, sans-serif; font-size: 10px; fill: black; font-weight: bold;">sl</textPath></text><text dy="0.5ex" class="label"><textPath xmlns:xlink="http://www.w3.org/1999/xlink" xlink:href="#path-0-2" startOffset="86%" alignment-baseline="middle" text-anchor="middle" style="font-family: Arial, sans-serif; font-size: 10px; fill: black; font-weight: bold;">ct</textPath></text><text dy="0.5ex" class="label"><textPath xmlns:xlink="http://www.w3.org/1999/xlink" xlink:href="#path-0-3" startOffset="5%" alignment-baseline="middle" text-anchor="start" style="font-family: Arial, sans-serif; font-size: 10px; fill: black; font-weight: bold;">cb</textPath></text><text dy="0.5ex" class="label"><textPath xmlns:xlink="http://www.w3.org/1999/xlink" xlink:href="#path-0-4" startOffset="5%" alignment-baseline="middle" text-anchor="start" style="font-family: Arial, sans-serif; font-size: 10px; fill: black; font-weight: bold;">ch</textPath></text></g></g><text x="4" y="4" style="font-family: Arial, sans-serif; font-size: 12px; fill: black; font-weight: bold; dominant-baseline: hanging;"/></g></g><defs><path id="path-0-0" d="M0,194.32C19.8,194.32,19.8,192.07999999999998,39.6,192.07999999999998C59.400000000000006,192.07999999999998,59.400000000000006,188.16000000000005,79.2,188.16000000000005C99,188.16000000000005,99,183.4,118.8,183.4C138.6,183.4,138.6,180.6,158.4,180.6C178.2,180.6,178.2,179.20000000000005,198,179.20000000000005C217.8,179.20000000000005,217.8,180.04,237.6,180.04C257.4,180.04,257.4,176.68,277.2,176.68C297,176.68,297,176.12,316.8,176.12C336.6,176.12,336.6,173.60000000000002,356.40000000000003,173.60000000000002C376.20000000000005,173.60000000000002,376.20000000000005,172.48000000000002,396,172.48000000000002C415.8,172.48000000000002,415.8,173.60000000000002,435.6,173.60000000000002C455.4,173.60000000000002,455.4,173.32,475.2,173.32C495,173.32,495,173.32,514.8000000000001,173.32C534.6,173.32,534.6,169.4,554.4,169.4C574.2,169.4,574.2,165.19999999999996,594,165.19999999999996C613.8,165.19999999999996,613.8,161.56,633.6,161.56C653.4,161.56,653.4,155.9600000000001,673.1999999999999,155.9600000000001C693,155.9600000000001,693,150.35999999999999,712.8000000000001,150.35999999999999C732.6,150.35999999999999,732.6,151.48,752.4,151.48C772.2,151.48,772.2,145.8800000000001,792,145.8800000000001"/><path id="path-0-1" d="M0,408.52000000000004C19.8,408.52000000000004,19.8,470.96,39.6,470.96C59.400000000000006,470.96,59.400000000000006,401.52000000000004,79.2,401.52000000000004C99,401.52000000000004,99,398.16,118.8,398.16C138.6,398.16,138.6,393.96000000000004,158.4,393.96000000000004C178.2,393.96000000000004,178.2,390.6,198,390.6C217.8,390.6,217.8,392.84000000000003,237.6,392.84000000000003C257.4,392.84000000000003,257.4,385.56,277.2,385.56C297,385.56,297,381.91999999999996,316.8,381.91999999999996C336.6,381.91999999999996,336.6,376.31999999999994,356.40000000000003,376.31999999999994C376.20000000000005,376.31999999999994,376.20000000000005,374.08,396,374.08C415.8,374.08,415.8,376.03999999999996,435.6,376.03999999999996C455.4,376.03999999999996,455.4,373.24,475.2,373.24C495,373.24,495,376.03999999999996,514.8000000000001,376.03999999999996C534.6,376.03999999999996,534.6,370.71999999999997,554.4,370.71999999999997C574.2,370.71999999999997,574.2,366.52,594,366.52C613.8,366.52,613.8,362.59999999999997,633.6,362.59999999999997C653.4,362.59999999999997,653.4,354.20000000000005,673.1999999999999,354.20000000000005C693,354.20000000000005,693,344.4,712.8000000000001,344.4C732.6,344.4,732.6,350.84000000000003,752.4,350.84000000000003C772.2,350.84000000000003,772.2,344.40000000000003,792,344.40000000000003"/><path id="path-0-2" d="M0,560C19.8,560,19.8,560,39.6,560C59.400000000000006,560,59.400000000000006,557.2,79.2,557.2C99,557.2,99,553.84,118.8,553.84C138.6,553.84,138.6,552.4399999999999,158.4,552.4399999999999C178.2,552.4399999999999,178.2,551.88,198,551.88C217.8,551.88,217.8,549.92,237.6,549.92C257.4,549.92,257.4,547.12,277.2,547.12C297,547.12,297,546.8399999999999,316.8,546.8399999999999C336.6,546.8399999999999,336.6,544.04,356.40000000000003,544.04C376.20000000000005,544.04,376.20000000000005,543.76,396,543.76C415.8,543.76,415.8,544.04,435.6,544.04C455.4,544.04,455.4,542.64,475.2,542.64C495,542.64,495,544.3199999999999,514.8000000000001,544.3199999999999C534.6,544.3199999999999,534.6,544.04,554.4,544.04C574.2,544.04,574.2,544.5999999999999,594,544.5999999999999C613.8,544.5999999999999,613.8,544.3199999999999,633.6,544.3199999999999C653.4,544.3199999999999,653.4,543.48,673.1999999999999,543.48C693,543.48,693,541.52,712.8000000000001,541.52C732.6,541.52,732.6,542.64,752.4,542.64C772.2,542.64,772.2,541.5200000000001,792,541.5200000000001"/><path id="path-0-3" d="M0,473.76000000000005C19.8,473.76000000000005,19.8,532,39.6,532C59.400000000000006,532,59.400000000000006,528.92,79.2,528.92C99,528.92,99,524.16,118.8,524.16C138.6,524.16,138.6,520.24,158.4,520.24C178.2,520.24,178.2,519.68,198,519.68C217.8,519.68,217.8,515.48,237.6,515.48C257.4,515.48,257.4,508.76,277.2,508.76C297,508.76,297,508.47999999999996,316.8,508.47999999999996C336.6,508.47999999999996,336.6,501.75999999999993,356.40000000000003,501.75999999999993C376.20000000000005,501.75999999999993,376.20000000000005,443.52000000000004,396,443.52000000000004C415.8,443.52000000000004,415.8,500.91999999999996,435.6,500.91999999999996C455.4,500.91999999999996,455.4,497.56,475.2,497.56C495,497.56,495,503.15999999999997,514.8000000000001,503.15999999999997C534.6,503.15999999999997,534.6,499.5199999999999,554.4,499.5199999999999C574.2,499.5199999999999,574.2,441.84,594,441.84C613.8,441.84,613.8,499.23999999999995,633.6,499.23999999999995C653.4,499.23999999999995,653.4,497.2800000000001,673.1999999999999,497.2800000000001C693,497.2800000000001,693,493.36,712.8000000000001,493.36C732.6,493.36,732.6,498.12,752.4,498.12C772.2,498.12,772.2,495.88000000000005,792,495.88000000000005"/><path id="path-0-4" d="M0,532.5600000000001C19.8,532.5600000000001,19.8,404.32,39.6,404.32C59.400000000000006,404.32,59.400000000000006,471.52000000000004,79.2,471.52000000000004C99,471.52000000000004,99,470.12,118.8,470.12C138.6,470.12,138.6,465.92,158.4,465.92C178.2,465.92,178.2,463.96000000000004,198,463.96000000000004C217.8,463.96000000000004,217.8,463.40000000000003,237.6,463.40000000000003C257.4,463.40000000000003,257.4,455.28,277.2,455.28C297,455.28,297,453.32,316.8,453.32C336.6,453.32,336.6,446.31999999999994,356.40000000000003,446.31999999999994C376.20000000000005,446.31999999999994,376.20000000000005,500.08,396,500.08C415.8,500.08,415.8,445.19999999999993,435.6,445.19999999999993C455.4,445.19999999999993,455.4,440.71999999999997,475.2,440.71999999999997C495,440.71999999999997,495,447.43999999999994,514.8000000000001,447.43999999999994C534.6,447.43999999999994,534.6,442.12,554.4,442.12C574.2,442.12,574.2,500.35999999999996,594,500.35999999999996C613.8,500.35999999999996,613.8,439.88,633.6,439.88C653.4,439.88,653.4,436.52000000000004,673.1999999999999,436.52000000000004C693,436.52000000000004,693,430.35999999999996,712.8000000000001,430.35999999999996C732.6,430.35999999999996,732.6,439.04,752.4,439.04C772.2,439.04,772.2,437.08000000000004,792,437.08000000000004"/></defs><g id="legend" transform="translate(812,20)"><g transform="translate(5,0)"><g class="legendColor" transform="translate(0,0)"><g class="legendCells" transform="translate(0,16)"><g class="cell" transform="translate(0, 0)"><rect class="swatch" height="15" width="15" style="fill: rgb(31, 119, 180);"/><text class="label" transform="translate( 20, 12.5)" font-family="&quot;Arial&quot;, sans-serif" font-size="10px"><tspan x="0" dy="0em">cb</tspan></text></g><g class="cell" transform="translate(0, 21)"><rect class="swatch" height="15" width="15" style="fill: rgb(255, 127, 14);"/><text class="label" transform="translate( 20, 12.5)" font-family="&quot;Arial&quot;, sans-serif" font-size="10px"><tspan x="0" dy="0em">ch</tspan></text></g><g class="cell" transform="translate(0, 42)"><rect class="swatch" height="15" width="15" style="fill: rgb(44, 160, 44);"/><text class="label" transform="translate( 20, 12.5)" font-family="&quot;Arial&quot;, sans-serif" font-size="10px"><tspan x="0" dy="0em">ct</tspan></text></g><g class="cell" transform="translate(0, 63)"><rect class="swatch" height="15" width="15" style="fill: rgb(214, 39, 40);"/><text class="label" transform="translate( 20, 12.5)" font-family="&quot;Arial&quot;, sans-serif" font-size="10px"><tspan x="0" dy="0em">fb</tspan></text></g><g class="cell" transform="translate(0, 84)"><rect class="swatch" height="15" width="15" style="fill: rgb(148, 103, 189);"/><text class="label" transform="translate( 20, 12.5)" font-family="&quot;Arial&quot;, sans-serif" font-size="10px"><tspan x="0" dy="0em">sl</tspan></text></g></g><text class="legendTitle" font-family="&quot;Arial&quot;, sans-serif" font-size="12px" font-weight="bold"><tspan x="0" dy="0em">Colors</tspan></text></g></g></g></svg>